{
  "asset": {
    "version": "2.0",
    "generator": "THREE.GLTFExporter"
  },
  "scenes": [
    {
      "nodes": [
        0
      ]
    }
  ],
  "scene": 0,
  "nodes": [
    {
      "children": [
        9
      ],
      "matrix": [
        0.01,
        0,
        0,
        0,
        0,
        0.01,
        0,
        0,
        0,
        0,
        0.01,
        0,
        0,
        0,
        0,
        1
      ]
    },
    {
      "matrix": [
        1,
        0,
        0,
        0,
        0,
        2.220446049250313e-16,
        -1,
        0,
        0,
        1,
        2.220446049250313e-16,
        0,
        -132.33097076416016,
        510.53791771295073,
        -154.33097076416016,
        1
      ],
      "name": "Dodecahedron 4",
      "mesh": 0
    },
    {
      "matrix": [
        1,
        0,
        0,
        0,
        0,
        2.220446049250313e-16,
        -1,
        0,
        0,
        1,
        2.220446049250313e-16,
        0,
        -191.85460482017515,
        541.7019350310729,
        23.445666852014284,
        1
      ],
      "name": "Dodecahedron 2",
      "mesh": 1
    },
    {
      "matrix": [
        1,
        0,
        0,
        0,
        0,
        2.220446049250313e-16,
        -1,
        0,
        0,
        1,
        2.220446049250313e-16,
        0,
        -127.17840576171875,
        782.3781340895293,
        50.12186591047072,
        1
      ],
      "name": "Dodecahedron 3",
      "mesh": 2
    },
    {
      "matrix": [
        -0.08715574274765792,
        0.9961946980917457,
        2.220446049250313e-16,
        0,
        0,
        2.220446049250313e-16,
        -1,
        0,
        -0.9961946980917457,
        -0.08715574274765792,
        0,
        0,
        166.44906231199252,
        693.0976061276378,
        0,
        1
      ],
      "name": "Dodecahedron",
      "mesh": 3
    },
    {
      "matrix": [
        1,
        0,
        0,
        0,
        0,
        1,
        0,
        0,
        0,
        0,
        1,
        0,
        0.10273545313223309,
        0,
        -0.19946891628494967,
        1
      ],
      "name": "Cube",
      "mesh": 4
    },
    {
      "matrix": [
        0.5883484054145521,
        0.39223227027636803,
        -0.7071067811865475,
        0,
        -0.554700196225229,
        0.8320502943378437,
        0,
        0,
        0.588348405414552,
        0.392232270276368,
        0.7071067811865476,
        0,
        0,
        0,
        0,
        1
      ],
      "name": "Directional Light",
      "extensions": {
        "KHR_lights_punctual": {
          "light": 0
        }
      }
    },
    {
      "matrix": [
        -0.9995182699694558,
        1.5243882545146192e-16,
        -0.03103591463556773,
        0,
        -0.001245620752873004,
        0.9991942736365809,
        0.0401154828065873,
        0,
        0.031010908180933033,
        0.04013481695318404,
        -0.9987129317486223,
        0,
        -143.66481447590652,
        424.61513057413055,
        -739.3202909400227,
        1
      ],
      "camera": 0
    },
    {
      "matrix": [
        1,
        0,
        0,
        0,
        0,
        1,
        0,
        0,
        0,
        0,
        1,
        0,
        0,
        1,
        0,
        1
      ],
      "name": "Default Ambient Light"
    },
    {
      "name": "Scene 1",
      "children": [
        1,
        2,
        3,
        4,
        5,
        6,
        7,
        8
      ]
    }
  ],
  "bufferViews": [
    {
      "buffer": 0,
      "byteOffset": 0,
      "byteLength": 1296,
      "target": 34962,
      "byteStride": 12
    },
    {
      "buffer": 0,
      "byteOffset": 1296,
      "byteLength": 1296,
      "target": 34962,
      "byteStride": 12
    },
    {
      "buffer": 0,
      "byteOffset": 2592,
      "byteLength": 864,
      "target": 34962,
      "byteStride": 8
    },
    {
      "buffer": 0,
      "byteOffset": 3456,
      "byteLength": 1296,
      "target": 34962,
      "byteStride": 12
    },
    {
      "buffer": 0,
      "byteOffset": 4752,
      "byteLength": 1296,
      "target": 34962,
      "byteStride": 12
    },
    {
      "buffer": 0,
      "byteOffset": 6048,
      "byteLength": 864,
      "target": 34962,
      "byteStride": 8
    },
    {
      "buffer": 0,
      "byteOffset": 6912,
      "byteLength": 1296,
      "target": 34962,
      "byteStride": 12
    },
    {
      "buffer": 0,
      "byteOffset": 8208,
      "byteLength": 1296,
      "target": 34962,
      "byteStride": 12
    },
    {
      "buffer": 0,
      "byteOffset": 9504,
      "byteLength": 864,
      "target": 34962,
      "byteStride": 8
    },
    {
      "buffer": 0,
      "byteOffset": 10368,
      "byteLength": 1296,
      "target": 34962,
      "byteStride": 12
    },
    {
      "buffer": 0,
      "byteOffset": 11664,
      "byteLength": 1296,
      "target": 34962,
      "byteStride": 12
    },
    {
      "buffer": 0,
      "byteOffset": 12960,
      "byteLength": 864,
      "target": 34962,
      "byteStride": 8
    },
    {
      "buffer": 0,
      "byteOffset": 13824,
      "byteLength": 9600,
      "target": 34962,
      "byteStride": 12
    },
    {
      "buffer": 0,
      "byteOffset": 23424,
      "byteLength": 9600,
      "target": 34962,
      "byteStride": 12
    },
    {
      "buffer": 0,
      "byteOffset": 33024,
      "byteLength": 4800,
      "target": 34963
    }
  ],
  "buffers": [
    {
      "byteLength": 37824,
      "uri": "data:application/octet-stream;base64,"
    }
  ],
  "accessors": [
    {
      "bufferView": 0,
      "componentType": 5126,
      "count": 108,
      "max": [
        54.330970764160156,
        54.330970764160156,
        54.330970764160156
      ],
      "min": [
        -54.330970764160156,
        -54.330970764160156,
        -54.330970764160156
      ],
      "type": "VEC3"
    },
    {
      "bufferView": 1,
      "componentType": 5126,
      "count": 108,
      "max": [
        0.8506508469581604,
        0.8506508469581604,
        0.8506508469581604
      ],
      "min": [
        -0.8506508469581604,
        -0.8506508469581604,
        -0.8506508469581604
      ],
      "type": "VEC3"
    },
    {
      "bufferView": 2,
      "componentType": 5126,
      "count": 108,
      "max": [
        1.125,
        0.8838602304458618
      ],
      "min": [
        0,
        0.11613976210355759
      ],
      "type": "VEC2"
    },
    {
      "bufferView": 3,
      "componentType": 5126,
      "count": 108,
      "max": [
        114.27122497558594,
        114.27122497558594,
        114.27122497558594
      ],
      "min": [
        -114.27122497558594,
        -114.27122497558594,
        -114.27122497558594
      ],
      "type": "VEC3"
    },
    {
      "bufferView": 4,
      "componentType": 5126,
      "count": 108,
      "max": [
        0.8506508469581604,
        0.8506508469581604,
        0.8506507873535156
      ],
      "min": [
        -0.8506508469581604,
        -0.8506508469581604,
        -0.8506507873535156
      ],
      "type": "VEC3"
    },
    {
      "bufferView": 5,
      "componentType": 5126,
      "count": 108,
      "max": [
        1.125,
        0.8838602304458618
      ],
      "min": [
        0,
        0.11613976210355759
      ],
      "type": "VEC2"
    },
    {
      "bufferView": 6,
      "componentType": 5126,
      "count": 108,
      "max": [
        172.82159423828125,
        172.82159423828125,
        172.82159423828125
      ],
      "min": [
        -172.82159423828125,
        -172.82159423828125,
        -172.82159423828125
      ],
      "type": "VEC3"
    },
    {
      "bufferView": 7,
      "componentType": 5126,
      "count": 108,
      "max": [
        0.8506508469581604,
        0.8506508469581604,
        0.8506508469581604
      ],
      "min": [
        -0.8506508469581604,
        -0.8506508469581604,
        -0.8506508469581604
      ],
      "type": "VEC3"
    },
    {
      "bufferView": 8,
      "componentType": 5126,
      "count": 108,
      "max": [
        1.125,
        0.8838602304458618
      ],
      "min": [
        0,
        0.11613976210355759
      ],
      "type": "VEC2"
    },
    {
      "bufferView": 9,
      "componentType": 5126,
      "count": 108,
      "max": [
        245.9490966796875,
        245.9490966796875,
        245.9490966796875
      ],
      "min": [
        -245.9490966796875,
        -245.9490966796875,
        -245.9490966796875
      ],
      "type": "VEC3"
    },
    {
      "bufferView": 10,
      "componentType": 5126,
      "count": 108,
      "max": [
        0.8506508469581604,
        0.8506508469581604,
        0.8506508469581604
      ],
      "min": [
        -0.8506508469581604,
        -0.8506508469581604,
        -0.8506508469581604
      ],
      "type": "VEC3"
    },
    {
      "bufferView": 11,
      "componentType": 5126,
      "count": 108,
      "max": [
        1.125,
        0.8838602304458618
      ],
      "min": [
        0,
        0.11613976210355759
      ],
      "type": "VEC2"
    },
    {
      "bufferView": 12,
      "componentType": 5126,
      "count": 800,
      "max": [
        99.89726257324219,
        718.835205078125,
        49.92813491821289
      ],
      "min": [
        -156.39463806152344,
        -50,
        -141.8587646484375
      ],
      "type": "VEC3"
    },
    {
      "bufferView": 13,
      "componentType": 5126,
      "count": 800,
      "max": [
        1,
        0.9993401169776917,
        1
      ],
      "min": [
        -0.9942758083343506,
        -1,
        -0.9988782405853271
      ],
      "type": "VEC3"
    },
    {
      "bufferView": 14,
      "componentType": 5125,
      "count": 1200,
      "max": [
        799
      ],
      "min": [
        0
      ],
      "type": "SCALAR"
    }
  ],
  "meshes": [
    {
      "primitives": [
        {
          "mode": 4,
          "attributes": {
            "POSITION": 0,
            "NORMAL": 1,
            "TEXCOORD_0": 2
          },
          "extras": {
            "parameters": {
              "width": 116.31894197983279,
              "detail": 0,
              "corner": 0,
              "cornerSides": 4,
              "height": 116.31894197983279,
              "depth": 116.31894197983279,
              "type": "DodecahedronGeometry"
            },
            "type": "DodecahedronGeometry"
          }
        }
      ]
    },
    {
      "primitives": [
        {
          "mode": 4,
          "attributes": {
            "POSITION": 3,
            "NORMAL": 4,
            "TEXCOORD_0": 5
          },
          "extras": {
            "parameters": {
              "width": 244.64697661607715,
              "detail": 0,
              "corner": 0,
              "cornerSides": 4,
              "height": 244.64697661607715,
              "depth": 244.64697661607715,
              "type": "DodecahedronGeometry"
            },
            "type": "DodecahedronGeometry"
          }
        }
      ]
    },
    {
      "primitives": [
        {
          "mode": 4,
          "attributes": {
            "POSITION": 6,
            "NORMAL": 7,
            "TEXCOORD_0": 8
          },
          "extras": {
            "parameters": {
              "width": 369.9993747329899,
              "detail": 0,
              "corner": 0,
              "cornerSides": 4,
              "height": 369.9993747329899,
              "depth": 369.9993747329899,
              "type": "DodecahedronGeometry"
            },
            "type": "DodecahedronGeometry"
          }
        }
      ]
    },
    {
      "primitives": [
        {
          "mode": 4,
          "attributes": {
            "POSITION": 9,
            "NORMAL": 10,
            "TEXCOORD_0": 11
          },
          "extras": {
            "parameters": {
              "width": 526.5604306567731,
              "detail": 0,
              "corner": 0,
              "cornerSides": 4,
              "height": 526.5604306567731,
              "depth": 526.5604306567731,
              "type": "DodecahedronGeometry"
            },
            "type": "DodecahedronGeometry"
          }
        }
      ]
    },
    {
      "primitives": [
        {
          "mode": 4,
          "attributes": {
            "POSITION": 12,
            "NORMAL": 13
          },
          "extras": {
            "type": "SubdivGeometry",
            "parameters": {
              "width": 256.2919006347656,
              "height": 768.835205078125,
              "depth": 191.7868995666504
            }
          },
          "indices": 14
        }
      ]
    }
  ],
  "extensions": {
    "KHR_lights_punctual": {
      "lights": [
        {
          "name": "Directional Light",
          "color": [
            1,
            1,
            1
          ],
          "intensity": 0.7,
          "type": "directional"
        }
      ]
    }
  },
  "cameras": [
    {
      "type": "orthographic",
      "orthographic": {
        "xmag": 13.718153045565922,
        "ymag": 9.483775461246994,
        "zfar": 100000,
        "znear": 0
      }
    }
  ],
  "extensionsUsed": [
    "KHR_lights_punctual"
  ]
}