{
  "asset": {
    "version": "2.0",
    "generator": "THREE.GLTFExporter"
  },
  "scenes": [
    {
      "nodes": [
        0
      ]
    }
  ],
  "scene": 0,
  "nodes": [
    {
      "children": [
        10
      ],
      "matrix": [
        0.01,
        0,
        0,
        0,
        0,
        0.01,
        0,
        0,
        0,
        0,
        0.01,
        0,
        0,
        0,
        0,
        1
      ]
    },
    {
      "matrix": [
        -0.0871557427476579,
        0.9961946980917451,
        1.1661566492358334e-15,
        0,
        -7.430893365666235e-17,
        9.288616707082815e-16,
        -0.6693153718528884,
        0,
        -0.9961946980917458,
        -0.08715574274765825,
        2.31720836157707e-16,
        0,
        4.751145204515437,
        438.8652256699194,
        161.6666363354018,
        1
      ],
      "name": "Dodecahedron 4",
      "mesh": 0
    },
    {
      "matrix": [
        -0.0871557427476588,
        0.9961946980917452,
        -4.436667364706431e-16,
        0,
        -0.7104533311464604,
        -0.062156612439545254,
        -0.7009940226513619,
        0,
        -0.6983265287592919,
        -0.061095654705848594,
        0.7131671474535699,
        0,
        -77.84366616773156,
        553.2424568328015,
        44.17306518554683,
        1
      ],
      "name": "Dodecahedron 6",
      "mesh": 1
    },
    {
      "matrix": [
        -0.08715574274765836,
        0.9961946980917452,
        -2.2162213154561187e-16,
        0,
        -0.6706100812361809,
        -0.058670779754365146,
        -0.7394862125472101,
        0,
        -0.7366722442514765,
        -0.06445047010620508,
        0.6731717028014342,
        0,
        -100.00000000000003,
        612.7495699233662,
        -157.82693481445318,
        1
      ],
      "name": "Dodecahedron 5",
      "mesh": 2
    },
    {
      "matrix": [
        -0.08715574274765765,
        0.9961946980917455,
        2.061592242360466e-15,
        0,
        -0.7574801215285679,
        -0.0662709234799873,
        -0.6494859738209708,
        0,
        -0.6470144836054053,
        -0.05660643245255453,
        0.7603735725351224,
        0,
        82.54200856297493,
        462.83690767311236,
        -89.67712655938635,
        1
      ],
      "name": "Dodecahedron 7",
      "mesh": 3
    },
    {
      "matrix": [
        -0.08715574274765787,
        0.9961946980917457,
        2.061592242360466e-15,
        0,
        0.3489212760540586,
        0.03052665611773186,
        -0.9366547210061331,
        0,
        -0.9330904670089128,
        -0.08163483790738929,
        -0.3502540986440022,
        0,
        62.03509735992608,
        597.3832786247176,
        -108.26831778533976,
        1
      ],
      "name": "Dodecahedron 3",
      "mesh": 4
    },
    {
      "matrix": [
        -0.0871557427476578,
        0.9961946980917453,
        2.0844040840149014e-15,
        0,
        0.34892127605405854,
        0.030526656117731872,
        -0.9366547210061331,
        0,
        -0.9330904670089133,
        -0.08163483790738925,
        -0.3502540986440023,
        0,
        100.00000000000007,
        548.3794126123444,
        -38.70730952915747,
        1
      ],
      "name": "Dodecahedron",
      "mesh": 5
    },
    {
      "matrix": [
        1,
        0,
        0,
        0,
        0,
        0.9193618132769533,
        0,
        0,
        0,
        0,
        1,
        0,
        0.1027354531322473,
        -4.03190933615241,
        -0.19946891628495678,
        1
      ],
      "name": "Cube",
      "mesh": 6
    },
    {
      "matrix": [
        -0.8163038289424258,
        -1.352402233256722e-8,
        0.5776227651797797,
        0,
        0.24252955604326037,
        0.9075817773968906,
        0.3427458705550803,
        0,
        -0.524239900522074,
        0.41987535928784947,
        -0.740862476687479,
        0,
        -495.03681316958165,
        535.1325387218012,
        -727.8547914146817,
        1
      ],
      "camera": 0
    },
    {
      "matrix": [
        1,
        0,
        0,
        0,
        0,
        1,
        0,
        0,
        0,
        0,
        1,
        0,
        0,
        1,
        0,
        1
      ],
      "name": "Default Ambient Light"
    },
    {
      "name": "bm.tree.orange",
      "children": [
        1,
        2,
        3,
        4,
        5,
        6,
        7,
        8,
        9
      ]
    }
  ],
  "bufferViews": [
    {
      "buffer": 0,
      "byteOffset": 0,
      "byteLength": 1296,
      "target": 34962,
      "byteStride": 12
    },
    {
      "buffer": 0,
      "byteOffset": 1296,
      "byteLength": 1296,
      "target": 34962,
      "byteStride": 12
    },
    {
      "buffer": 0,
      "byteOffset": 2592,
      "byteLength": 864,
      "target": 34962,
      "byteStride": 8
    },
    {
      "buffer": 0,
      "byteOffset": 3456,
      "byteLength": 1296,
      "target": 34962,
      "byteStride": 12
    },
    {
      "buffer": 0,
      "byteOffset": 4752,
      "byteLength": 1296,
      "target": 34962,
      "byteStride": 12
    },
    {
      "buffer": 0,
      "byteOffset": 6048,
      "byteLength": 864,
      "target": 34962,
      "byteStride": 8
    },
    {
      "buffer": 0,
      "byteOffset": 6912,
      "byteLength": 1296,
      "target": 34962,
      "byteStride": 12
    },
    {
      "buffer": 0,
      "byteOffset": 8208,
      "byteLength": 1296,
      "target": 34962,
      "byteStride": 12
    },
    {
      "buffer": 0,
      "byteOffset": 9504,
      "byteLength": 864,
      "target": 34962,
      "byteStride": 8
    },
    {
      "buffer": 0,
      "byteOffset": 10368,
      "byteLength": 1296,
      "target": 34962,
      "byteStride": 12
    },
    {
      "buffer": 0,
      "byteOffset": 11664,
      "byteLength": 1296,
      "target": 34962,
      "byteStride": 12
    },
    {
      "buffer": 0,
      "byteOffset": 12960,
      "byteLength": 864,
      "target": 34962,
      "byteStride": 8
    },
    {
      "buffer": 0,
      "byteOffset": 13824,
      "byteLength": 1296,
      "target": 34962,
      "byteStride": 12
    },
    {
      "buffer": 0,
      "byteOffset": 15120,
      "byteLength": 1296,
      "target": 34962,
      "byteStride": 12
    },
    {
      "buffer": 0,
      "byteOffset": 16416,
      "byteLength": 864,
      "target": 34962,
      "byteStride": 8
    },
    {
      "buffer": 0,
      "byteOffset": 17280,
      "byteLength": 1296,
      "target": 34962,
      "byteStride": 12
    },
    {
      "buffer": 0,
      "byteOffset": 18576,
      "byteLength": 1296,
      "target": 34962,
      "byteStride": 12
    },
    {
      "buffer": 0,
      "byteOffset": 19872,
      "byteLength": 864,
      "target": 34962,
      "byteStride": 8
    },
    {
      "buffer": 0,
      "byteOffset": 20736,
      "byteLength": 10272,
      "target": 34962,
      "byteStride": 12
    },
    {
      "buffer": 0,
      "byteOffset": 31008,
      "byteLength": 10272,
      "target": 34962,
      "byteStride": 12
    },
    {
      "buffer": 0,
      "byteOffset": 41280,
      "byteLength": 5136,
      "target": 34963
    }
  ],
  "buffers": [
    {
      "byteLength": 46416,
      "uri": "data:application/octet-stream;base64,"
    }
  ],
  "accessors": [
    {
      "bufferView": 0,
      "componentType": 5126,
      "count": 108,
      "max": [
        87.9206314086914,
        153.31471252441406,
        87.9206314086914
      ],
      "min": [
        -87.9206314086914,
        -153.31471252441406,
        -87.9206314086914
      ],
      "type": "VEC3"
    },
    {
      "bufferView": 1,
      "componentType": 5126,
      "count": 108,
      "max": [
        0.9425517916679382,
        0.6801812648773193,
        0.8506508469581604
      ],
      "min": [
        -0.9425517916679382,
        -0.6801812648773193,
        -0.8506508469581604
      ],
      "type": "VEC3"
    },
    {
      "bufferView": 2,
      "componentType": 5126,
      "count": 108,
      "max": [
        1.125,
        0.8838602304458618
      ],
      "min": [
        0,
        0.11613976210355759
      ],
      "type": "VEC2"
    },
    {
      "bufferView": 3,
      "componentType": 5126,
      "count": 108,
      "max": [
        193.6171417236328,
        193.6171417236328,
        193.6171417236328
      ],
      "min": [
        -193.6171417236328,
        -193.6171417236328,
        -193.6171417236328
      ],
      "type": "VEC3"
    },
    {
      "bufferView": 4,
      "componentType": 5126,
      "count": 108,
      "max": [
        0.8506508469581604,
        0.8506508469581604,
        0.8506508469581604
      ],
      "min": [
        -0.8506508469581604,
        -0.8506508469581604,
        -0.8506508469581604
      ],
      "type": "VEC3"
    },
    {
      "bufferView": 5,
      "componentType": 5126,
      "count": 108,
      "max": [
        1.125,
        0.8838602304458618
      ],
      "min": [
        0,
        0.11613976210355759
      ],
      "type": "VEC2"
    },
    {
      "bufferView": 6,
      "componentType": 5126,
      "count": 108,
      "max": [
        113.00969696044922,
        113.00969696044922,
        113.00969696044922
      ],
      "min": [
        -113.00969696044922,
        -113.00969696044922,
        -113.00969696044922
      ],
      "type": "VEC3"
    },
    {
      "bufferView": 7,
      "componentType": 5126,
      "count": 108,
      "max": [
        0.8506507873535156,
        0.8506507873535156,
        0.8506507873535156
      ],
      "min": [
        -0.8506507873535156,
        -0.8506507873535156,
        -0.8506507873535156
      ],
      "type": "VEC3"
    },
    {
      "bufferView": 8,
      "componentType": 5126,
      "count": 108,
      "max": [
        1.125,
        0.8838602304458618
      ],
      "min": [
        0,
        0.11613976210355759
      ],
      "type": "VEC2"
    },
    {
      "bufferView": 9,
      "componentType": 5126,
      "count": 108,
      "max": [
        128.8618621826172,
        128.8618621826172,
        128.8618621826172
      ],
      "min": [
        -128.8618621826172,
        -128.8618621826172,
        -128.8618621826172
      ],
      "type": "VEC3"
    },
    {
      "bufferView": 10,
      "componentType": 5126,
      "count": 108,
      "max": [
        0.8506508469581604,
        0.8506508469581604,
        0.8506508469581604
      ],
      "min": [
        -0.8506508469581604,
        -0.8506508469581604,
        -0.8506508469581604
      ],
      "type": "VEC3"
    },
    {
      "bufferView": 11,
      "componentType": 5126,
      "count": 108,
      "max": [
        1.125,
        0.8838602304458618
      ],
      "min": [
        0,
        0.11613976210355759
      ],
      "type": "VEC2"
    },
    {
      "bufferView": 12,
      "componentType": 5126,
      "count": 108,
      "max": [
        148.98622131347656,
        148.98622131347656,
        148.98622131347656
      ],
      "min": [
        -148.98622131347656,
        -148.98622131347656,
        -148.98622131347656
      ],
      "type": "VEC3"
    },
    {
      "bufferView": 13,
      "componentType": 5126,
      "count": 108,
      "max": [
        0.8506508469581604,
        0.8506508469581604,
        0.8506508469581604
      ],
      "min": [
        -0.8506508469581604,
        -0.8506508469581604,
        -0.8506508469581604
      ],
      "type": "VEC3"
    },
    {
      "bufferView": 14,
      "componentType": 5126,
      "count": 108,
      "max": [
        1.125,
        0.8838602304458618
      ],
      "min": [
        0,
        0.11613976210355759
      ],
      "type": "VEC2"
    },
    {
      "bufferView": 15,
      "componentType": 5126,
      "count": 108,
      "max": [
        102.42635345458984,
        92.3758544921875,
        148.9862060546875
      ],
      "min": [
        -102.42635345458984,
        -92.3758544921875,
        -148.9862060546875
      ],
      "type": "VEC3"
    },
    {
      "bufferView": 16,
      "componentType": 5126,
      "count": 108,
      "max": [
        0.8248974680900574,
        0.9337879419326782,
        0.7436738014221191
      ],
      "min": [
        -0.8248974680900574,
        -0.9337879419326782,
        -0.7436738014221191
      ],
      "type": "VEC3"
    },
    {
      "bufferView": 17,
      "componentType": 5126,
      "count": 108,
      "max": [
        1.125,
        0.8838602304458618
      ],
      "min": [
        0,
        0.11613976210355759
      ],
      "type": "VEC2"
    },
    {
      "bufferView": 18,
      "componentType": 5126,
      "count": 856,
      "max": [
        99.89726257324219,
        718.835205078125,
        68.31053924560547
      ],
      "min": [
        -156.39463806152344,
        -50.27052688598633,
        -141.85861206054688
      ],
      "type": "VEC3"
    },
    {
      "bufferView": 19,
      "componentType": 5126,
      "count": 856,
      "max": [
        1,
        0.9993401765823364,
        0.9999626278877258
      ],
      "min": [
        -0.994275689125061,
        -1,
        -0.9995175004005432
      ],
      "type": "VEC3"
    },
    {
      "bufferView": 20,
      "componentType": 5125,
      "count": 1284,
      "max": [
        855
      ],
      "min": [
        0
      ],
      "type": "SCALAR"
    }
  ],
  "materials": [
    {
      "pbrMetallicRoughness": {
        "baseColorFactor": [
          0.2501582847191642,
          0.17788841597328695,
          0.10946171076915331,
          1
        ],
        "metallicFactor": 0,
        "roughnessFactor": 0.995
      },
      "doubleSided": false
    },
    {
      "pbrMetallicRoughness": {
        "baseColorFactor": [
          0.2501582847191642,
          0.17788841597328695,
          0.10946171076915331,
          1
        ],
        "metallicFactor": 0,
        "roughnessFactor": 0.995
      },
      "doubleSided": false
    },
    {
      "pbrMetallicRoughness": {
        "baseColorFactor": [
          0.2501582847191642,
          0.17788841597328695,
          0.10946171076915331,
          1
        ],
        "metallicFactor": 0,
        "roughnessFactor": 0.995
      },
      "doubleSided": false
    },
    {
      "pbrMetallicRoughness": {
        "baseColorFactor": [
          0.2501582847191642,
          0.17788841597328695,
          0.10946171076915331,
          1
        ],
        "metallicFactor": 0,
        "roughnessFactor": 0.995
      },
      "doubleSided": false
    },
    {
      "pbrMetallicRoughness": {
        "baseColorFactor": [
          0.2501582847191642,
          0.17788841597328695,
          0.10946171076915331,
          1
        ],
        "metallicFactor": 0,
        "roughnessFactor": 0.995
      },
      "doubleSided": false
    },
    {
      "pbrMetallicRoughness": {
        "baseColorFactor": [
          0.2501582847191642,
          0.17788841597328695,
          0.10946171076915331,
          1
        ],
        "metallicFactor": 0,
        "roughnessFactor": 0.995
      },
      "doubleSided": false
    },
    {
      "pbrMetallicRoughness": {
        "baseColorFactor": [
          0.10068939095931859,
          0.055054408561799745,
          0.055054408561799745,
          1
        ],
        "metallicFactor": 0,
        "roughnessFactor": 0.9305719168903338
      },
      "doubleSided": false
    }
  ],
  "meshes": [
    {
      "primitives": [
        {
          "mode": 4,
          "attributes": {
            "POSITION": 0,
            "NORMAL": 1,
            "TEXCOORD_0": 2
          },
          "extras": {
            "parameters": {
              "width": 188.23214261354605,
              "detail": 0,
              "corner": 0,
              "cornerSides": 4,
              "height": 328.2364475110777,
              "depth": 188.23214261352427,
              "type": "DodecahedronGeometry"
            },
            "type": "DodecahedronGeometry"
          },
          "material": 0
        }
      ]
    },
    {
      "primitives": [
        {
          "mode": 4,
          "attributes": {
            "POSITION": 3,
            "NORMAL": 4,
            "TEXCOORD_0": 5
          },
          "extras": {
            "parameters": {
              "width": 414.5212480742875,
              "detail": 0,
              "corner": 0,
              "cornerSides": 4,
              "height": 414.5212480742877,
              "depth": 414.52124807428766,
              "type": "DodecahedronGeometry"
            },
            "type": "DodecahedronGeometry"
          },
          "material": 1
        }
      ]
    },
    {
      "primitives": [
        {
          "mode": 4,
          "attributes": {
            "POSITION": 6,
            "NORMAL": 7,
            "TEXCOORD_0": 8
          },
          "extras": {
            "parameters": {
              "width": 241.9461405873093,
              "detail": 0,
              "corner": 0,
              "cornerSides": 4,
              "height": 241.94614058730943,
              "depth": 241.94614058730937,
              "type": "DodecahedronGeometry"
            },
            "type": "DodecahedronGeometry"
          },
          "material": 2
        }
      ]
    },
    {
      "primitives": [
        {
          "mode": 4,
          "attributes": {
            "POSITION": 9,
            "NORMAL": 10,
            "TEXCOORD_0": 11
          },
          "extras": {
            "parameters": {
              "width": 275.88456750356175,
              "detail": 0,
              "corner": 0,
              "cornerSides": 4,
              "height": 275.88456750356175,
              "depth": 275.88456750356175,
              "type": "DodecahedronGeometry"
            },
            "type": "DodecahedronGeometry"
          },
          "material": 3
        }
      ]
    },
    {
      "primitives": [
        {
          "mode": 4,
          "attributes": {
            "POSITION": 12,
            "NORMAL": 13,
            "TEXCOORD_0": 14
          },
          "extras": {
            "parameters": {
              "width": 318.9694367873816,
              "detail": 0,
              "corner": 0,
              "cornerSides": 4,
              "height": 318.9694367873816,
              "depth": 318.9694367873816,
              "type": "DodecahedronGeometry"
            },
            "type": "DodecahedronGeometry"
          },
          "material": 4
        }
      ]
    },
    {
      "primitives": [
        {
          "mode": 4,
          "attributes": {
            "POSITION": 15,
            "NORMAL": 16,
            "TEXCOORD_0": 17
          },
          "extras": {
            "parameters": {
              "width": 219.287917170463,
              "detail": 0,
              "corner": 0,
              "cornerSides": 4,
              "height": 197.77047103718155,
              "depth": 318.9694367873816,
              "type": "DodecahedronGeometry"
            },
            "type": "DodecahedronGeometry"
          },
          "material": 5
        }
      ]
    },
    {
      "primitives": [
        {
          "mode": 4,
          "attributes": {
            "POSITION": 18,
            "NORMAL": 19
          },
          "extras": {
            "type": "SubdivGeometry",
            "parameters": {
              "width": 256.2919006347656,
              "height": 769.1057319641113,
              "depth": 210.16915130615234
            }
          },
          "indices": 20,
          "material": 6
        }
      ]
    }
  ],
  "cameras": [
    {
      "type": "orthographic",
      "orthographic": {
        "xmag": 5.965525000000001,
        "ymag": 4.174062500000001,
        "zfar": 100000,
        "znear": 0
      }
    }
  ]
}