{
  "asset": {
    "version": "2.0",
    "generator": "THREE.GLTFExporter"
  },
  "scenes": [
    {
      "nodes": [
        0
      ]
    }
  ],
  "scene": 0,
  "nodes": [
    {
      "children": [
        9
      ],
      "matrix": [
        0.01,
        0,
        0,
        0,
        0,
        0.01,
        0,
        0,
        0,
        0,
        0.01,
        0,
        0,
        0,
        0,
        1
      ]
    },
    {
      "matrix": [
        0.7804757688208432,
        -0.3639418280055695,
        0,
        0,
        0.1563774085916937,
        0.33535243493623795,
        0,
        0,
        0,
        0,
        0.8611597296021929,
        0,
        78.48692018951097,
        141.06154016335526,
        0,
        1
      ],
      "name": "cap",
      "mesh": 0
    },
    {
      "matrix": [
        0.3844403576208779,
        0.3844403576208779,
        0,
        0,
        -0.7592776815735167,
        0.7592776815735166,
        0,
        0,
        0,
        0,
        0.5436807676710084,
        0,
        -3.406814079740002,
        3.406814079740002,
        0,
        0.9999999999999998
      ],
      "name": "yellow",
      "mesh": 1
    },
    {
      "matrix": [
        0.6089318844864842,
        0.6089318844864843,
        0,
        0,
        -0.26164398477274153,
        0.26164398477274153,
        0,
        0,
        0,
        0,
        0.8611597296021929,
        0,
        23.798668382466666,
        -23.798668382466662,
        0,
        1
      ],
      "name": "black",
      "mesh": 2
    },
    {
      "matrix": [
        1,
        0,
        0,
        0,
        0,
        1,
        0,
        0,
        0,
        0,
        1,
        0,
        -137.4877514084536,
        136.82966549996715,
        0,
        1
      ],
      "name": "stem",
      "children": [
        2,
        3
      ]
    },
    {
      "matrix": [
        0.9063077870300557,
        -0.422544236759355,
        1.6274650319387201e-16,
        0,
        -0.4226182617376247,
        -0.906149039951866,
        5.92348828934788e-17,
        0,
        1.2246467991384428e-16,
        -1.2244322924289559e-16,
        -0.9999999999999999,
        0,
        -104.6483561287353,
        73.3953379930946,
        -1.5389143220626208e-30,
        0.9999999999999999
      ],
      "name": "handle",
      "mesh": 3
    },
    {
      "matrix": [
        0.999999999992724,
        0,
        0,
        0,
        0,
        0.9998248419719497,
        0,
        0,
        0,
        0,
        0.4592301940569224,
        0,
        -1.862645149230957e-9,
        0.04343919095648863,
        0,
        1
      ],
      "name": "body",
      "mesh": 4
    },
    {
      "matrix": [
        0.9988797064481821,
        1.4868671277708245e-8,
        0.04732158118652849,
        0,
        -0.003123227984442243,
        0.9978196386238206,
        0.06592582364737919,
        0,
        -0.04721840205842025,
        -0.06599976345887858,
        0.9967017877632314,
        0,
        -95.9508560188396,
        -8.706483907794684,
        965.3858415512991,
        1
      ],
      "camera": 0
    },
    {
      "matrix": [
        1,
        0,
        0,
        0,
        0,
        1,
        0,
        0,
        0,
        0,
        1,
        0,
        0,
        1,
        0,
        1
      ],
      "name": "Default Ambient Light"
    },
    {
      "name": "gasoline",
      "children": [
        1,
        4,
        5,
        6,
        7,
        8
      ]
    }
  ],
  "bufferViews": [
    {
      "buffer": 0,
      "byteOffset": 0,
      "byteLength": 18720,
      "target": 34962,
      "byteStride": 12
    },
    {
      "buffer": 0,
      "byteOffset": 18720,
      "byteLength": 18720,
      "target": 34962,
      "byteStride": 12
    },
    {
      "buffer": 0,
      "byteOffset": 37440,
      "byteLength": 12480,
      "target": 34962,
      "byteStride": 8
    },
    {
      "buffer": 0,
      "byteOffset": 49920,
      "byteLength": 17280,
      "target": 34963
    },
    {
      "buffer": 0,
      "byteOffset": 67200,
      "byteLength": 7032,
      "target": 34962,
      "byteStride": 12
    },
    {
      "buffer": 0,
      "byteOffset": 74232,
      "byteLength": 7032,
      "target": 34962,
      "byteStride": 12
    },
    {
      "buffer": 0,
      "byteOffset": 81264,
      "byteLength": 4688,
      "target": 34962,
      "byteStride": 8
    },
    {
      "buffer": 0,
      "byteOffset": 85952,
      "byteLength": 6216,
      "target": 34963
    },
    {
      "buffer": 0,
      "byteOffset": 92168,
      "byteLength": 141696,
      "target": 34962,
      "byteStride": 12
    },
    {
      "buffer": 0,
      "byteOffset": 233864,
      "byteLength": 141696,
      "target": 34962,
      "byteStride": 12
    },
    {
      "buffer": 0,
      "byteOffset": 375560,
      "byteLength": 70848,
      "target": 34963
    }
  ],
  "buffers": [
    {
      "byteLength": 446408,
      "uri": "data:application/octet-stream;base64,"
    }
  ],
  "accessors": [
    {
      "bufferView": 0,
      "componentType": 5126,
      "count": 1560,
      "max": [
        20,
        50,
        20
      ],
      "min": [
        -20,
        -50,
        -20
      ],
      "type": "VEC3"
    },
    {
      "bufferView": 1,
      "componentType": 5126,
      "count": 1560,
      "max": [
        1,
        1,
        1
      ],
      "min": [
        -1,
        -1,
        -1
      ],
      "type": "VEC3"
    },
    {
      "bufferView": 2,
      "componentType": 5126,
      "count": 1560,
      "max": [
        1,
        1
      ],
      "min": [
        0,
        0
      ],
      "type": "VEC2"
    },
    {
      "bufferView": 3,
      "componentType": 5123,
      "count": 8640,
      "max": [
        1558
      ],
      "min": [
        0
      ],
      "type": "SCALAR"
    },
    {
      "bufferView": 4,
      "componentType": 5126,
      "count": 586,
      "max": [
        129.698974609375,
        -0.5481342077255249,
        10.002710342407227
      ],
      "min": [
        -14.22315788269043,
        -143.87258911132812,
        -10.002710342407227
      ],
      "type": "VEC3"
    },
    {
      "bufferView": 5,
      "componentType": 5126,
      "count": 586,
      "max": [
        0.9896522760391235,
        0.9396820068359375,
        0.9999772906303406
      ],
      "min": [
        -0.9896522760391235,
        -0.990209698677063,
        -0.9999772906303406
      ],
      "type": "VEC3"
    },
    {
      "bufferView": 6,
      "componentType": 5126,
      "count": 586,
      "max": [
        1,
        1
      ],
      "min": [
        0,
        0
      ],
      "type": "VEC2"
    },
    {
      "bufferView": 7,
      "componentType": 5123,
      "count": 3108,
      "max": [
        585
      ],
      "min": [
        0
      ],
      "type": "SCALAR"
    },
    {
      "bufferView": 8,
      "componentType": 5126,
      "count": 11808,
      "max": [
        119,
        157.54165649414062,
        130.8280792236328
      ],
      "min": [
        -119,
        -146,
        -127.69155883789062
      ],
      "type": "VEC3"
    },
    {
      "bufferView": 9,
      "componentType": 5126,
      "count": 11808,
      "max": [
        1,
        0.9999049305915833,
        1
      ],
      "min": [
        -1,
        -1,
        -1
      ],
      "type": "VEC3"
    },
    {
      "bufferView": 10,
      "componentType": 5125,
      "count": 17712,
      "max": [
        11807
      ],
      "min": [
        0
      ],
      "type": "SCALAR"
    }
  ],
  "materials": [
    {
      "pbrMetallicRoughness": {
        "baseColorFactor": [
          0.34191442489801843,
          0.20507873637973145,
          0.035601314869097636,
          1
        ],
        "metallicFactor": 0,
        "roughnessFactor": 0.995
      },
      "doubleSided": false
    },
    {
      "pbrMetallicRoughness": {
        "baseColorFactor": [
          0.3435858673414517,
          0.2050844120455142,
          0.03536889011439599,
          1
        ],
        "metallicFactor": 0,
        "roughnessFactor": 0.995
      },
      "doubleSided": false
    },
    {
      "pbrMetallicRoughness": {
        "baseColorFactor": [
          0.02121901037134225,
          0.02121901037134225,
          0.02121901037134225,
          1
        ],
        "metallicFactor": 0,
        "roughnessFactor": 0.9738870846805144
      },
      "doubleSided": false
    },
    {
      "pbrMetallicRoughness": {
        "baseColorFactor": [
          0.020850268509015734,
          0.020850268509015734,
          0.020850268509015734,
          1
        ],
        "metallicFactor": 0,
        "roughnessFactor": 0.9742539828335294
      },
      "doubleSided": false
    },
    {
      "pbrMetallicRoughness": {
        "baseColorFactor": [
          0.35746297920468284,
          0.029949117972764932,
          0.021565140489900506,
          1
        ],
        "metallicFactor": 0,
        "roughnessFactor": 0.8965533779355072
      },
      "doubleSided": false
    }
  ],
  "meshes": [
    {
      "primitives": [
        {
          "mode": 4,
          "attributes": {
            "POSITION": 0,
            "NORMAL": 1,
            "TEXCOORD_0": 2
          },
          "extras": {
            "parameters": {
              "width": 40,
              "radialSegments": 64,
              "heightSegments": 1,
              "openEnded": false,
              "thetaStart": 0,
              "thetaLength": 360,
              "cornerRadius": 8,
              "cornerSegments": 8,
              "hollow": 0,
              "depth": 40,
              "height": 100,
              "radiusTop": 20,
              "radiusBottom": 20,
              "type": "CylinderGeometry"
            },
            "type": "CylinderGeometry",
            "booleanOperationDidFail": false
          },
          "indices": 3,
          "material": 0
        }
      ]
    },
    {
      "primitives": [
        {
          "mode": 4,
          "attributes": {
            "POSITION": 0,
            "NORMAL": 1,
            "TEXCOORD_0": 2
          },
          "extras": {
            "parameters": {
              "width": 40,
              "radialSegments": 64,
              "heightSegments": 1,
              "openEnded": false,
              "thetaStart": 0,
              "thetaLength": 360,
              "cornerRadius": 8,
              "cornerSegments": 8,
              "hollow": 0,
              "depth": 40,
              "height": 100,
              "radiusTop": 20,
              "radiusBottom": 20,
              "type": "CylinderGeometry"
            },
            "type": "CylinderGeometry",
            "booleanOperationDidFail": false
          },
          "indices": 3,
          "material": 1
        }
      ]
    },
    {
      "primitives": [
        {
          "mode": 4,
          "attributes": {
            "POSITION": 0,
            "NORMAL": 1,
            "TEXCOORD_0": 2
          },
          "extras": {
            "parameters": {
              "width": 40,
              "radialSegments": 64,
              "heightSegments": 1,
              "openEnded": false,
              "thetaStart": 0,
              "thetaLength": 360,
              "cornerRadius": 8,
              "cornerSegments": 8,
              "hollow": 0,
              "depth": 40,
              "height": 100,
              "radiusTop": 20,
              "radiusBottom": 20,
              "type": "CylinderGeometry"
            },
            "type": "CylinderGeometry",
            "booleanOperationDidFail": false
          },
          "indices": 3,
          "material": 2
        }
      ]
    },
    {
      "primitives": [
        {
          "mode": 4,
          "attributes": {
            "POSITION": 4,
            "NORMAL": 5,
            "TEXCOORD_0": 6
          },
          "extras": {
            "path": {
              "points": [
                {
                  "id": "13720981-d48a-4353-9d19-9f1d1b6953c0",
                  "fi": 0,
                  "data": {
                    "position": [
                      6.5038582333038395,
                      -1.9440110136325757,
                      0
                    ],
                    "roundness": 0,
                    "areControlsDirectionsMirrored": true,
                    "controlPrevious": {
                      "position": [
                        6.5038582333038395,
                        -1.9440110136325757,
                        0
                      ]
                    },
                    "controlNext": {
                      "position": [
                        6.5038582333038395,
                        -1.9440110136325757,
                        0
                      ]
                    }
                  }
                },
                {
                  "id": "7ccaa557-52a4-4e69-bac2-f0631e72c705",
                  "fi": 1,
                  "data": {
                    "position": [
                      -5.4317871877914214,
                      -86.61331715210474,
                      0
                    ],
                    "roundness": 0,
                    "areControlsDirectionsMirrored": true,
                    "controlPrevious": {
                      "position": [
                        -5.4317871877914214,
                        -86.61331715210474,
                        0
                      ]
                    },
                    "controlNext": {
                      "position": [
                        -5.4317871877914214,
                        -86.61331715210474,
                        0
                      ]
                    }
                  }
                },
                {
                  "id": "c83c715a-3232-456a-b140-2d489d52636c",
                  "fi": 2,
                  "data": {
                    "position": [
                      126.30923371640786,
                      -134.55845681149515,
                      0
                    ],
                    "roundness": 0,
                    "areControlsDirectionsMirrored": true,
                    "controlPrevious": {
                      "position": [
                        126.30923371640786,
                        -134.55845681149515,
                        0
                      ]
                    },
                    "controlNext": {
                      "position": [
                        126.30923371640786,
                        -134.55845681149515,
                        0
                      ]
                    }
                  }
                }
              ],
              "lastInsertionPlane": null,
              "subdivisions": 12,
              "isClosed": false,
              "roundness": 0
            },
            "parameters": {
              "width": 131.74102090419922,
              "height": 132.61444579786257,
              "depth": 0.001,
              "subdivisions": 40,
              "roundness": 0,
              "extrudeBevelSize": 0,
              "extrudeBevelSegments": 3,
              "windingRule": 0,
              "shape": {
                "points": [
                  {
                    "fi": 0.46458987966681303,
                    "id": "13720981-d48a-4353-9d19-9f1d1b6953c0",
                    "data": {
                      "position": [
                        7.048073204336106,
                        -1.9440110136325757
                      ],
                      "controlPrevious": {
                        "position": [
                          7.048073204336106,
                          -1.9440110136325757
                        ]
                      },
                      "controlNext": {
                        "position": [
                          7.048073204336106,
                          -1.9440110136325757
                        ]
                      },
                      "areControlsDirectionsMirrored": true,
                      "roundness": 0
                    }
                  },
                  {
                    "fi": 0.9521153452223261,
                    "id": "7ccaa557-52a4-4e69-bac2-f0631e72c705",
                    "data": {
                      "position": [
                        -5.88629585034505,
                        -86.61331715210474
                      ],
                      "controlPrevious": {
                        "position": [
                          -5.88629585034505,
                          -86.61331715210474
                        ]
                      },
                      "controlNext": {
                        "position": [
                          -5.88629585034505,
                          -86.61331715210474
                        ]
                      },
                      "areControlsDirectionsMirrored": true,
                      "roundness": 0
                    }
                  },
                  {
                    "fi": 1.4790360437904901,
                    "id": "c83c715a-3232-456a-b140-2d489d52636c",
                    "data": {
                      "position": [
                        136.87824883055873,
                        -134.55845681149515
                      ],
                      "controlPrevious": {
                        "position": [
                          136.87824883055873,
                          -134.55845681149515
                        ]
                      },
                      "controlNext": {
                        "position": [
                          136.87824883055873,
                          -134.55845681149515
                        ]
                      },
                      "areControlsDirectionsMirrored": true,
                      "roundness": 0
                    }
                  }
                ],
                "isClosed": false,
                "roundness": 0,
                "shapeHoles": []
              },
              "type": "PathGeometry",
              "path": {
                "points": [
                  {
                    "id": "13720981-d48a-4353-9d19-9f1d1b6953c0",
                    "fi": 0,
                    "data": {
                      "position": [
                        6.5038582333038395,
                        -1.9440110136325757,
                        0
                      ],
                      "roundness": 0,
                      "areControlsDirectionsMirrored": true,
                      "controlPrevious": {
                        "position": [
                          6.5038582333038395,
                          -1.9440110136325757,
                          0
                        ]
                      },
                      "controlNext": {
                        "position": [
                          6.5038582333038395,
                          -1.9440110136325757,
                          0
                        ]
                      }
                    }
                  },
                  {
                    "id": "7ccaa557-52a4-4e69-bac2-f0631e72c705",
                    "fi": 1,
                    "data": {
                      "position": [
                        -5.4317871877914214,
                        -86.61331715210474,
                        0
                      ],
                      "roundness": 0,
                      "areControlsDirectionsMirrored": true,
                      "controlPrevious": {
                        "position": [
                          -5.4317871877914214,
                          -86.61331715210474,
                          0
                        ]
                      },
                      "controlNext": {
                        "position": [
                          -5.4317871877914214,
                          -86.61331715210474,
                          0
                        ]
                      }
                    }
                  },
                  {
                    "id": "c83c715a-3232-456a-b140-2d489d52636c",
                    "fi": 2,
                    "data": {
                      "position": [
                        126.30923371640786,
                        -134.55845681149515,
                        0
                      ],
                      "roundness": 0,
                      "areControlsDirectionsMirrored": true,
                      "controlPrevious": {
                        "position": [
                          126.30923371640786,
                          -134.55845681149515,
                          0
                        ]
                      },
                      "controlNext": {
                        "position": [
                          126.30923371640786,
                          -134.55845681149515,
                          0
                        ]
                      }
                    }
                  }
                ],
                "lastInsertionPlane": null,
                "subdivisions": 12,
                "isClosed": false,
                "roundness": 0
              },
              "extrusion": {
                "shape": {
                  "type": "Ellipse",
                  "width": 20,
                  "height": 20,
                  "spikes": 16,
                  "angle": 360,
                  "innerRadius": 0
                },
                "depth": 1,
                "offset": 0,
                "bevel": 50,
                "bevelSides": 6,
                "angle": 0,
                "twist": 0,
                "startScale": 1,
                "endScale": 1,
                "capType": "flat"
              }
            },
            "shapeData": {
              "points": [
                -25,
                0,
                -25,
                -13.807118744999999,
                -25,
                13.807118744999999,
                0,
                0,
                25,
                -13.807118744999999,
                25,
                13.807118744999999,
                25,
                0,
                25,
                0,
                25,
                13.807118744999999,
                25,
                -13.807118744999999,
                0,
                0,
                -25,
                13.807118744999999,
                -25,
                -13.807118744999999,
                -25,
                0
              ],
              "shapeHoles": [],
              "isClosed": true,
              "roundness": 0
            },
            "type": "PathGeometry"
          },
          "indices": 7,
          "material": 3
        }
      ]
    },
    {
      "primitives": [
        {
          "mode": 4,
          "attributes": {
            "POSITION": 8,
            "NORMAL": 9
          },
          "extras": {
            "type": "SubdivGeometry",
            "parameters": {
              "width": 238,
              "height": 310.44586181640625,
              "depth": 258.51963806152344
            }
          },
          "indices": 10,
          "material": 4
        }
      ]
    }
  ],
  "cameras": [
    {
      "type": "orthographic",
      "orthographic": {
        "xmag": 13.55410936191192,
        "ymag": 9.483775461246992,
        "zfar": 100000,
        "znear": 0
      }
    }
  ]
}